<?xml version="1.0" encoding="utf-8"?>
<!-- Generator: Adobe Illustrator 16.0.0, SVG Export Plug-In . SVG Version: 6.00 Build 0)  -->
<!DOCTYPE svg PUBLIC "-//W3C//DTD SVG 1.1//EN" "http://www.w3.org/Graphics/SVG/1.1/DTD/svg11.dtd">
<svg version="1.1" id="Layer_1" xmlns="http://www.w3.org/2000/svg" xmlns:xlink="http://www.w3.org/1999/xlink" x="0px" y="0px"
	 width="201.3px" height="142.6px" viewBox="0 0 201.3 142.6" enable-background="new 0 0 201.3 142.6" xml:space="preserve">
<g>
	<path fill="#333333" d="M0,0l-18.4,142.6H-22L-3.4,0H0z"/>
	<path fill="#333333" d="M8.8,0L-9.7,142.6h-3.6L5.4,0H8.8z"/>
	<path fill="#333333" d="M17.5,0L-0.9,142.6h-3.6L14.1,0H17.5z"/>
	<path fill="#333333" d="M26.3,0L7.8,142.6H4.3L22.9,0H26.3z"/>
	<path fill="#333333" d="M35,0L16.6,142.6H13L31.6,0H35z"/>
	<path fill="#333333" d="M43.8,0L25.3,142.6h-3.6L40.4,0H43.8z"/>
	<path fill="#333333" d="M52.5,0L34.1,142.6h-3.6L49.1,0H52.5z"/>
	<path fill="#333333" d="M61.3,0L42.9,142.6h-3.6L57.9,0H61.3z"/>
	<path fill="#333333" d="M70,0L51.6,142.6H48L66.6,0H70z"/>
	<path fill="#333333" d="M78.8,0L60.4,142.6h-3.6L75.4,0H78.8z"/>
	<path fill="#333333" d="M87.5,0L69.1,142.6h-3.6L84.1,0H87.5z"/>
	<path fill="#333333" d="M96.3,0L77.9,142.6h-3.6L92.9,0H96.3z"/>
	<path fill="#333333" d="M105,0L86.6,142.6h-3.6L101.7,0H105z"/>
	<path fill="#333333" d="M113.8,0L95.4,142.6h-3.6L110.4,0H113.8z"/>
	<path fill="#333333" d="M122.5,0l-18.4,142.6h-3.6L119.2,0H122.5z"/>
	<path fill="#333333" d="M131.3,0l-18.4,142.6h-3.6L127.9,0H131.3z"/>
	<path fill="#333333" d="M140,0l-18.4,142.6h-3.6L136.7,0H140z"/>
	<path fill="#333333" d="M148.8,0l-18.4,142.6h-3.6L145.4,0H148.8z"/>
	<path fill="#333333" d="M157.6,0l-18.4,142.6h-3.6L154.2,0H157.6z"/>
	<path fill="#333333" d="M166.3,0l-18.4,142.6h-3.6L162.9,0H166.3z"/>
	<path fill="#333333" d="M175.1,0l-18.4,142.6h-3.6L171.7,0H175.1z"/>
	<path fill="#333333" d="M183.8,0l-18.4,142.6h-3.6L180.4,0H183.8z"/>
	<path fill="#333333" d="M192.6,0l-18.4,142.6h-3.6L189.2,0H192.6z"/>
	<path fill="#333333" d="M201.3,0l-18.4,142.6h-3.6L197.9,0H201.3z"/>
	<path fill="#333333" d="M210.1,0l-18.4,142.6h-3.6L206.7,0H210.1z"/>
	<path fill="#333333" d="M218.8,0l-18.4,142.6h-3.6L215.4,0H218.8z"/>
</g>
</svg>
