<?xml version="1.0" encoding="utf-8"?>
<!-- Generator: Adobe Illustrator 16.0.0, SVG Export Plug-In . SVG Version: 6.00 Build 0)  -->
<!DOCTYPE svg PUBLIC "-//W3C//DTD SVG 1.1//EN" "http://www.w3.org/Graphics/SVG/1.1/DTD/svg11.dtd">
<svg version="1.1"
	 id="Layer_1" xmlns:rdf="http://www.w3.org/1999/02/22-rdf-syntax-ns#" xmlns:cc="http://creativecommons.org/ns#" xmlns:dc="http://purl.org/dc/elements/1.1/"
	 xmlns="http://www.w3.org/2000/svg" xmlns:xlink="http://www.w3.org/1999/xlink" x="0px" y="0px" width="100px" height="100px"
	 viewBox="130 194 100 100" enable-background="new 130 194 100 100" xml:space="preserve">
<g>
	<path d="M179.977,210.067c-3.956,0.002-7.898,0.007-7.898,0.007l-9.719,0.142c-3.673-0.13-6.836,1.059-8.788,5.328l-7.056,17.637
		c-5.135,1.416-7.368,5.148-7.486,8.208v23.108h6.771v7.775c-0.328,7.412,11.822,7.708,12.094-0.066l0.142-7.635h43.936l0.141,7.632
		c0.272,7.775,12.422,7.479,12.093,0.067v-7.777h6.765v-23.106c-0.117-3.061-2.35-6.792-7.484-8.208l-7.057-17.637
		c-1.951-4.27-5.107-5.459-8.781-5.329l-9.72-0.141c-0.031-0.008-3.996-0.009-7.952-0.007L179.977,210.067z M163.169,216.34
		c0.308-0.001,0.623,0.007,0.951,0.02l31.87,0.102c2.917-0.068,4.155-0.006,5.395,2.752l5.08,13.685l-52.86-0.074l5.018-13.308
		C159.405,216.852,161.018,216.353,163.169,216.34L163.169,216.34z M152.067,239.737c3.16,0,5.726,2.56,5.726,5.72
		s-2.566,5.727-5.726,5.727c-3.161,0-5.72-2.566-5.72-5.727S148.907,239.737,152.067,239.737z M208.25,239.737
		c3.161,0,5.727,2.56,5.727,5.72s-2.565,5.727-5.727,5.727c-3.16,0-5.719-2.566-5.719-5.727S205.09,239.737,208.25,239.737z"/>
	<path d="M151.691,278.199c-1.864,0-3.583-0.68-4.716-1.864c-1.012-1.058-1.509-2.465-1.438-4.072v-7.502h-6.771V241.39
		c0.113-2.941,2.161-6.888,7.553-8.426l7.007-17.517c1.719-3.758,4.421-5.503,8.51-5.503c0.176,0,0.354,0.003,0.532,0.009
		l9.707-0.142c0.003,0,3.71-0.004,7.542-0.006l0.359-0.002l3.47-0.001c3.572,0,4.31,0.002,4.485,0.01v-0.002l9.72,0.142
		c0.165-0.006,0.343-0.009,0.519-0.009c4.085,0,6.785,1.745,8.499,5.491l7.013,17.529c5.391,1.539,7.438,5.486,7.553,8.417v23.381
		h-6.765v7.513c0.071,1.596-0.427,3.005-1.438,4.062c-1.135,1.185-2.854,1.863-4.717,1.863c-3.014,0-6.322-1.872-6.466-5.982
		l-0.137-7.379h-43.418l-0.136,7.376C158.015,276.326,154.705,278.199,151.691,278.199z M139.293,264.234h6.772v8.039
		c-0.065,1.473,0.381,2.746,1.292,3.696c1.034,1.082,2.614,1.701,4.335,1.701c2.769,0,5.808-1.712,5.939-5.474l0.146-7.889h44.453
		l0.146,7.892c0.131,3.756,3.171,5.47,5.939,5.47c1.721,0,3.301-0.62,4.335-1.702c0.909-0.951,1.356-2.225,1.292-3.684v-8.053h6.765
		v-22.844c-0.107-2.766-2.082-6.517-7.292-7.955l-0.127-0.034l-7.104-17.759c-1.612-3.525-4.16-5.172-8.015-5.172
		c-0.17,0-0.341,0.003-0.514,0.009l-9.767-0.143c-0.143-0.003-0.953-0.006-4.443-0.006l-3.469,0.003
		c-3.956,0.002-7.897,0.007-7.897,0.007l-9.716,0.141c-0.185-0.006-0.356-0.009-0.527-0.009c-3.858,0-6.408,1.647-8.025,5.184
		l-7.099,17.748l-0.126,0.035c-5.211,1.436-7.186,5.188-7.293,7.964L139.293,264.234z M208.25,251.448
		c-3.299,0-5.983-2.688-5.983-5.991c0-3.299,2.685-5.983,5.983-5.983c3.304,0,5.99,2.685,5.99,5.983
		C214.24,248.76,211.554,251.448,208.25,251.448z M208.25,240.001c-3.009,0-5.455,2.447-5.455,5.456
		c0,3.013,2.446,5.463,5.455,5.463c3.012,0,5.464-2.45,5.464-5.463C213.714,242.448,211.262,240.001,208.25,240.001z
		 M152.067,251.448c-3.299,0-5.984-2.688-5.984-5.991c0-3.299,2.685-5.983,5.984-5.983c3.303,0,5.99,2.685,5.99,5.983
		C158.057,248.76,155.37,251.448,152.067,251.448z M152.067,240.001c-3.009,0-5.457,2.447-5.457,5.456
		c0,3.013,2.448,5.463,5.457,5.463c3.012,0,5.462-2.45,5.462-5.463C157.53,242.448,155.079,240.001,152.067,240.001z
		 M206.844,233.163l-53.62-0.076l5.152-13.664c0.809-2.757,2.501-3.335,4.792-3.347h0.08c0.257,0,0.539,0.006,0.884,0.021
		l31.859,0.101c0.345-0.008,0.673-0.014,0.979-0.014c2.356,0,3.524,0.406,4.657,2.922L206.844,233.163z M153.986,232.562
		l52.099,0.073l-4.946-13.33c-1.057-2.347-2.083-2.594-4.169-2.594c-0.303,0-0.627,0.006-0.974,0.014l-31.877-0.101
		c-0.348-0.015-0.622-0.021-0.872-0.021h-0.077l-0.001-0.264l0.001,0.264c-2.113,0.012-3.568,0.515-4.294,2.988L153.986,232.562z"/>
</g>
</svg>
