<?xml version="1.0" encoding="utf-8"?>
<!-- Generator: Adobe Illustrator 16.0.0, SVG Export Plug-In . SVG Version: 6.00 Build 0)  -->
<!DOCTYPE svg PUBLIC "-//W3C//DTD SVG 1.1//EN" "http://www.w3.org/Graphics/SVG/1.1/DTD/svg11.dtd">
<svg version="1.1" id="Layer_1" xmlns="http://www.w3.org/2000/svg" xmlns:xlink="http://www.w3.org/1999/xlink" x="0px" y="0px"
	 width="143px" height="143.2px" viewBox="0 0 143 143.2" enable-background="new 0 0 143 143.2" xml:space="preserve">
<path d="M124.7,137c-2.5,0-5-1-6.8-2.9L81.7,96.9c-7.4,4.4-16.1,6.9-25.4,6.9c-27.5,0-49.9-22.4-49.9-49.9C6.4,26.4,28.8,4,56.3,4
	c27.5,0,49.9,22.4,49.9,49.9c0,11.4-3.8,21.9-10.3,30.3l35.5,36.5c3.7,3.8,3.6,9.8-0.2,13.5C129.5,136.1,127.1,137,124.7,137z
	 M56.3,23.1c-17,0-30.8,13.8-30.8,30.8c0,17,13.8,30.8,30.8,30.8c17,0,30.8-13.8,30.8-30.8C87.1,36.9,73.3,23.1,56.3,23.1z"/>
</svg>
