<?xml version="1.0" encoding="utf-8"?>
<!-- Generator: Adobe Illustrator 16.0.0, SVG Export Plug-In . SVG Version: 6.00 Build 0)  -->
<!DOCTYPE svg PUBLIC "-//W3C//DTD SVG 1.1//EN" "http://www.w3.org/Graphics/SVG/1.1/DTD/svg11.dtd">
<svg version="1.1" id="Layer_1" xmlns="http://www.w3.org/2000/svg" xmlns:xlink="http://www.w3.org/1999/xlink" x="0px" y="0px"
	 width="50px" height="50px" viewBox="0 0 50 50" enable-background="new 0 0 50 50" xml:space="preserve">
<g>
	<path fill="#333333" d="M9.6-46.3L-8.8,96.3h-3.6L6.2-46.3H9.6z"/>
	<path fill="#333333" d="M18.3-46.3L-0.1,96.3h-3.6L14.9-46.3H18.3z"/>
	<path fill="#333333" d="M27.1-46.3L8.7,96.3H5.1L23.7-46.3H27.1z"/>
	<path fill="#333333" d="M35.8-46.3L17.4,96.3h-3.6L32.4-46.3H35.8z"/>
	<path fill="#333333" d="M44.6-46.3L26.2,96.3h-3.6L41.2-46.3H44.6z"/>
	<path fill="#333333" d="M53.3-46.3L34.9,96.3h-3.6L50-46.3H53.3z"/>
	<path fill="#333333" d="M62.1-46.3L43.7,96.3h-3.6L58.7-46.3H62.1z"/>
	<path fill="#333333" d="M70.8-46.3L52.4,96.3h-3.6L67.5-46.3H70.8z"/>
</g>
<rect fill="none" stroke="#000000" stroke-width="3" stroke-miterlimit="10" width="50" height="50"/>
</svg>
