<?xml version="1.0" encoding="utf-8"?>
<!-- Generator: Adobe Illustrator 16.0.0, SVG Export Plug-In . SVG Version: 6.00 Build 0)  -->
<!DOCTYPE svg PUBLIC "-//W3C//DTD SVG 1.1//EN" "http://www.w3.org/Graphics/SVG/1.1/DTD/svg11.dtd">
<svg version="1.1" id="Layer_1" xmlns="http://www.w3.org/2000/svg" xmlns:xlink="http://www.w3.org/1999/xlink" x="0px" y="0px"
	 width="74px" height="49px" viewBox="0 0 74 49" enable-background="new 0 0 74 49" xml:space="preserve">
<g>
	<rect x="26" y="1" fill="#FFFFFF" stroke="#000000" stroke-miterlimit="10" width="22" height="22"/>
	<rect x="26" y="26" fill="#FFFFFF" stroke="#000000" stroke-miterlimit="10" width="22" height="22"/>
	<rect x="1" y="26" fill="#FFFFFF" stroke="#000000" stroke-miterlimit="10" width="22" height="22"/>
	<rect x="51" y="26" fill="#FFFFFF" stroke="#000000" stroke-miterlimit="10" width="22" height="22"/>
	<path stroke="#000000" stroke-miterlimit="10" d="M34.9,9.2c0.6-0.5,1-1,1.3-1.3s0.5-0.7,0.7-1.1h0.3c0.2,0.4,0.4,0.8,0.7,1.1
		s0.7,0.8,1.3,1.3v0.5c-0.8-0.4-1.4-0.8-1.8-1.2v8.6h-0.6V8.5C36.3,8.8,36,9,35.9,9.2s-0.5,0.3-1,0.5V9.2z"/>
	<path stroke="#000000" stroke-miterlimit="10" d="M8.9,34.9h0.4c-0.2,0.5-0.4,0.8-0.5,1s-0.3,0.5-0.6,0.8h9.3v0.6H8.2
		c0.4,0.4,0.8,1,1.2,1.8H8.9c-0.5-0.6-0.9-1-1.3-1.3s-0.7-0.5-1.1-0.7v-0.3c0.3-0.1,0.7-0.4,1.1-0.7S8.4,35.5,8.9,34.9z"/>
	<path stroke="#000000" stroke-miterlimit="10" d="M34.9,39.8v-0.4c0.5,0.2,0.8,0.4,1,0.5s0.5,0.3,0.8,0.6v-8.6h0.6v8.6
		c0.4-0.4,1-0.8,1.8-1.2v0.5c-0.6,0.5-1,0.9-1.3,1.3s-0.5,0.7-0.7,1.1h-0.3c-0.1-0.3-0.4-0.7-0.7-1.1S35.5,40.3,34.9,39.8z"/>
	<path stroke="#000000" stroke-miterlimit="10" d="M65.1,34.9c0.5,0.6,1,1,1.3,1.3s0.7,0.5,1.1,0.7v0.3c-0.4,0.2-0.8,0.4-1.1,0.7
		s-0.8,0.7-1.3,1.3h-0.5c0.4-0.8,0.8-1.4,1.2-1.8h-9.3v-0.6h9.3c-0.3-0.4-0.5-0.7-0.6-0.8s-0.3-0.5-0.5-1H65.1z"/>
</g>
</svg>
